<svg xmlns="http://www.w3.org/2000/svg" width="800" height="400" viewBox="0 0 800 400">
<defs>
<linearGradient id="bg" x1="0" x2="1" y1="0" y2="1"><stop offset="0" stop-color="#08111f"/><stop offset="1" stop-color="#123028"/></linearGradient>
<radialGradient id="glow" cx="72%" cy="24%" r="58%"><stop offset="0" stop-color="#0ea5e9" stop-opacity=".34"/><stop offset=".58" stop-color="#0ea5e9" stop-opacity=".08"/><stop offset="1" stop-color="#0ea5e9" stop-opacity="0"/></radialGradient>
</defs>
<rect width="800" height="400" fill="url(#bg)"/>
<rect width="800" height="400" fill="url(#glow)"/>
<g opacity=".16" stroke="#ffffff" stroke-width="1"><path d="M0 0v400"/><path d="M100 0v400"/><path d="M200 0v400"/><path d="M300 0v400"/><path d="M400 0v400"/><path d="M500 0v400"/><path d="M600 0v400"/><path d="M700 0v400"/><path d="M800 0v400"/><path d="M0 70h800"/><path d="M0 140h800"/><path d="M0 210h800"/><path d="M0 280h800"/><path d="M0 350h800"/></g>
<polyline points="88,164 176,163 264,162 352,161 440,160 528,159 616,158 704,157" fill="none" stroke="#22c55e" stroke-width="7" stroke-linecap="round" stroke-linejoin="round"/>
<polyline points="88,164 176,163 264,162 352,161 440,160 528,159 616,158 704,157" fill="none" stroke="#ffffff" stroke-opacity=".18" stroke-width="18" stroke-linecap="round" stroke-linejoin="round"/>
<circle cx="565" cy="123" r="94" fill="#22c55e" opacity=".14"/>
<rect x="42" y="36" width="180" height="34" rx="17" fill="#000000" opacity=".28"/>
<text x="62" y="58" fill="#22c55e" font-family="Inter, Arial, sans-serif" font-size="15" font-weight="800" letter-spacing="1">GLOBAL MARKETS</text>
<rect x="626" y="36" width="132" height="34" rx="17" fill="#22c55e" opacity=".18"/>
<text x="692" y="58" fill="#ffffff" text-anchor="middle" font-family="Inter, Arial, sans-serif" font-size="14" font-weight="800">NEUTRAL</text>
<text x="44" y="326" fill="#ffffff" font-family="Inter, Arial, sans-serif" font-size="30" font-weight="850">Gold drops to 4,268 after strong</text>
<text x="44" y="362" fill="#dbeafe" opacity=".92" font-family="Inter, Arial, sans-serif" font-size="25" font-weight="750">US</text>
<text x="44" y="94" fill="#93a4b8" font-family="Inter, Arial, sans-serif" font-size="13" font-weight="700">AI MACRO VISUAL</text>
</svg>
